<svg xmlns="http://www.w3.org/2000/svg" width="1280" height="900" viewBox="0 0 1280 900" fill="none">
  <defs>
    <pattern id="bp" width="22" height="22" patternUnits="userSpaceOnUse">
      <circle cx="1" cy="1" r="1" fill="#0E0E0E" opacity="0.06"></circle>
    </pattern>
    <clipPath id="clip"><rect x="1" y="1" width="1278" height="898" rx="16"></rect></clipPath>
    <marker id="ah" markerWidth="9" markerHeight="9" refX="6.5" refY="3" orient="auto" markerUnits="userSpaceOnUse">
      <path d="M0.5,0.5 L6.5,3 L0.5,5.5" fill="none" stroke="#2A2A2A" stroke-width="1.3" stroke-linecap="round" stroke-linejoin="round"></path>
    </marker>
    <marker id="ahd" markerWidth="9" markerHeight="9" refX="6.5" refY="3" orient="auto" markerUnits="userSpaceOnUse">
      <path d="M0.5,0.5 L6.5,3 L0.5,5.5" fill="none" stroke="#6B6B6B" stroke-width="1.3" stroke-linecap="round" stroke-linejoin="round"></path>
    </marker>
  </defs>

  <rect x="0.5" y="0.5" width="1279" height="899" rx="16" fill="#FAFAF8" stroke="#ECECEC"></rect>
  <g clip-path="url(#clip)"><rect width="1280" height="900" fill="url(#bp)"></rect></g>

  
  <text x="48" y="62" font-family="&#39;Geist Mono&#39;,ui-monospace,monospace" font-size="11" letter-spacing="1.8" fill="#A8A8A8">FIG.02 — SYSTEM ARCHITECTURE</text>
  <text x="48" y="90" font-family="&#39;Geist&#39;,&#39;Inter&#39;,system-ui,sans-serif" font-size="22" font-weight="600" fill="#0E0E0E">One Worker owns a domain’s email + calendar surface</text>

  
  <text x="430" y="126" font-family="&#39;Geist Mono&#39;,ui-monospace,monospace" font-size="10" letter-spacing="1.6" fill="#A8A8A8">EXTERNAL — READ-ONLY ICS FEEDS</text>
  <g font-family="&#39;Geist Mono&#39;,ui-monospace,monospace" font-size="13" fill="#0E0E0E">
    <g><rect x="430" y="136" width="140" height="50" rx="10" fill="#FFFFFF" stroke="#6B6B6B"></rect><text x="500" y="166" text-anchor="middle">Proton</text></g>
    <g><rect x="600" y="136" width="160" height="50" rx="10" fill="#FFFFFF" stroke="#6B6B6B"></rect><text x="680" y="166" text-anchor="middle">Outlook (M365)</text></g>
    <g><rect x="790" y="136" width="140" height="50" rx="10" fill="#FFFFFF" stroke="#6B6B6B"></rect><text x="860" y="166" text-anchor="middle">iCloud</text></g>
  </g>
  
  <g stroke="#6B6B6B" stroke-width="1.5" stroke-dasharray="5 4" fill="none" marker-end="url(#ahd)">
    <path d="M500 186 L500 238 L375 238 L375 252"></path>
    <path d="M680 186 L680 226 L385 226 L385 252"></path>
    <path d="M860 186 L860 232 L395 232 L395 252"></path>
  </g>

  
  <rect x="56" y="206" width="1168" height="648" rx="14" fill="none" stroke="#0E0E0E" stroke-width="1"></rect>
  <rect x="80" y="196" width="370" height="22" rx="6" fill="#0E0E0E"></rect>
  <text x="92" y="211" font-family="&#39;Geist Mono&#39;,ui-monospace,monospace" font-size="11" letter-spacing="1.2" fill="#FAFAF8">CLOUDFLARE ACCESS — single trust boundary</text>

  
  <g font-family="&#39;Geist&#39;,&#39;Inter&#39;,system-ui,sans-serif">
    <g><rect x="320" y="252" width="110" height="52" rx="10" fill="#FFFFFF" stroke="#0E0E0E"></rect><text x="375" y="276" text-anchor="middle" font-size="13" font-weight="600" fill="#0E0E0E">CRON</text><text x="375" y="293" text-anchor="middle" font-family="&#39;Geist Mono&#39;,ui-monospace,monospace" font-size="11" fill="#6B6B6B">*/10</text></g>
    <g><rect x="470" y="246" width="150" height="64" rx="10" fill="#FFFFFF" stroke="#0E0E0E"></rect><text x="545" y="276" text-anchor="middle" font-size="14" font-weight="600" fill="#0E0E0E">FeedPoller</text><text x="545" y="295" text-anchor="middle" font-family="&#39;Geist Mono&#39;,ui-monospace,monospace" font-size="10" fill="#6B6B6B">conditional GET</text></g>
    
    <g><rect x="320" y="334" width="130" height="50" rx="10" fill="#FFFFFF" stroke="#6B6B6B"></rect><text x="385" y="356" text-anchor="middle" font-family="&#39;Geist Mono&#39;,ui-monospace,monospace" font-size="11" fill="#0E0E0E">KV: FEED_CACHE</text><text x="385" y="372" text-anchor="middle" font-family="&#39;Geist Mono&#39;,ui-monospace,monospace" font-size="10" fill="#6B6B6B">ETag / 304</text></g>
    <g><rect x="470" y="334" width="150" height="50" rx="10" fill="#FFFFFF" stroke="#6B6B6B"></rect><text x="545" y="356" text-anchor="middle" font-family="&#39;Geist Mono&#39;,ui-monospace,monospace" font-size="11" fill="#0E0E0E">R2: SNAPSHOTS</text><text x="545" y="372" text-anchor="middle" font-family="&#39;Geist Mono&#39;,ui-monospace,monospace" font-size="10" fill="#6B6B6B">raw ICS</text></g>
  </g>
  <g stroke="#2A2A2A" stroke-width="1.5" fill="none" marker-end="url(#ah)">
    <path d="M430 278 L466 278"></path>
    <path d="M385 334 L385 314"></path>
    <path d="M545 310 L545 330"></path>
  </g>
  
  <path d="M620 278 L620 240 L1202 240 L1202 558 L1176 558" stroke="#2A2A2A" stroke-width="1.5" fill="none" marker-end="url(#ah)"></path>
  <text x="1146" y="232" font-family="&#39;Geist Mono&#39;,ui-monospace,monospace" font-size="10" fill="#6B6B6B">writes</text>

  
  <g font-family="&#39;Geist&#39;,&#39;Inter&#39;,system-ui,sans-serif">
    <g><rect x="90" y="436" width="200" height="72" rx="10" fill="#FFFFFF" stroke="#0E0E0E"></rect><text x="106" y="466" font-size="14" font-weight="600" fill="#0E0E0E">Browser</text><text x="106" y="486" font-family="&#39;Geist Mono&#39;,ui-monospace,monospace" font-size="11" fill="#6B6B6B">React SPA</text><text x="106" y="500" font-family="&#39;Geist Mono&#39;,ui-monospace,monospace" font-size="10" fill="#A8A8A8">/calendar · mailbox</text></g>
    <g><rect x="90" y="540" width="200" height="72" rx="10" fill="#FFFFFF" stroke="#6B6B6B"></rect><text x="106" y="570" font-size="14" font-weight="600" fill="#0E0E0E">MCP agents</text><text x="106" y="590" font-family="&#39;Geist Mono&#39;,ui-monospace,monospace" font-size="11" fill="#6B6B6B">Claude Code · Hermes</text></g>
  </g>
  <path d="M290 466 L468 466" stroke="#2A2A2A" stroke-width="1.5" fill="none" marker-end="url(#ah)"></path>
  <text x="320" y="458" font-family="&#39;Geist Mono&#39;,ui-monospace,monospace" font-size="10" fill="#6B6B6B">HTTP + WS</text>
  <path d="M290 568 L420 568 L420 554 L468 554" stroke="#6B6B6B" stroke-width="1.5" stroke-dasharray="5 4" fill="none" marker-end="url(#ahd)"></path>

  
  <rect x="470" y="430" width="300" height="200" rx="12" fill="#FFFFFF" stroke="#0E0E0E" stroke-width="1.4"></rect>
  <text x="490" y="460" font-family="&#39;Geist&#39;,&#39;Inter&#39;,system-ui,sans-serif" font-size="16" font-weight="600" fill="#0E0E0E">Hono Worker</text>
  <text x="490" y="478" font-family="&#39;Geist Mono&#39;,ui-monospace,monospace" font-size="11" fill="#6B6B6B">API + SSR</text>
  <g font-family="&#39;Geist Mono&#39;,ui-monospace,monospace" font-size="12" fill="#0E0E0E">
    <g><rect x="490" y="492" width="260" height="36" rx="8" fill="#FAFAF8" stroke="#D9D9D9"></rect><text x="504" y="514">/agents/*</text><text x="736" y="514" text-anchor="end" font-size="10" fill="#6B6B6B">WebSocket</text></g>
    <g><rect x="490" y="536" width="260" height="36" rx="8" fill="#FAFAF8" stroke="#D9D9D9"></rect><text x="504" y="558">/mcp</text><text x="736" y="558" text-anchor="end" font-size="10" fill="#6B6B6B">Access service token</text></g>
    <g><rect x="490" y="580" width="260" height="36" rx="8" fill="#FAFAF8" stroke="#D9D9D9"></rect><text x="504" y="602">email()</text><text x="736" y="602" text-anchor="end" font-size="10" fill="#6B6B6B">handler</text></g>
  </g>

  
  <rect x="820" y="250" width="372" height="420" rx="14" fill="none" stroke="#0E0E0E" stroke-width="1" stroke-dasharray="2 4"></rect>
  <text x="840" y="276" font-family="&#39;Geist Mono&#39;,ui-monospace,monospace" font-size="10" letter-spacing="1.2" fill="#6B6B6B">4 DURABLE OBJECTS — STRICT ISOLATION</text>
  <g font-family="&#39;Geist&#39;,&#39;Inter&#39;,system-ui,sans-serif">
    <g><rect x="840" y="292" width="332" height="60" rx="10" fill="#FFFFFF" stroke="#0E0E0E"></rect><text x="856" y="318" font-size="14" font-weight="600" fill="#0E0E0E">MailboxDO</text><text x="856" y="338" font-family="&#39;Geist Mono&#39;,ui-monospace,monospace" font-size="10" fill="#6B6B6B">SQLite + R2 attachments</text></g>
    <g><rect x="840" y="364" width="332" height="60" rx="10" fill="#FFFFFF" stroke="#0E0E0E"></rect><text x="856" y="390" font-size="14" font-weight="600" fill="#0E0E0E">EmailAgent</text><text x="856" y="410" font-family="&#39;Geist Mono&#39;,ui-monospace,monospace" font-size="10" fill="#6B6B6B">AIChatAgent · 16 tools</text></g>
    <g><rect x="840" y="436" width="332" height="60" rx="10" fill="#FFFFFF" stroke="#0E0E0E"></rect><text x="856" y="462" font-size="14" font-weight="600" fill="#0E0E0E">EmailMCP</text><text x="856" y="482" font-family="&#39;Geist Mono&#39;,ui-monospace,monospace" font-size="10" fill="#6B6B6B">20 tools</text></g>
    
    <line x1="840" y1="520" x2="1172" y2="520" stroke="#A8A8A8" stroke-width="1" stroke-dasharray="2 3"></line>
    <text x="1006" y="516" text-anchor="middle" font-family="&#39;Geist Mono&#39;,ui-monospace,monospace" font-size="9" letter-spacing="1.4" fill="#A8A8A8">⊘ NO SHARED SCHEMA</text>
    <g><rect x="840" y="528" width="332" height="60" rx="10" fill="#FFFFFF" stroke="#0E0E0E"></rect><text x="856" y="554" font-size="14" font-weight="600" fill="#0E0E0E">CalendarDO</text><text x="856" y="574" font-family="&#39;Geist Mono&#39;,ui-monospace,monospace" font-size="10" fill="#6B6B6B">feeds · blocks · availability</text></g>
  </g>
  
  <g><rect x="840" y="610" width="332" height="48" rx="10" fill="#FAFAF8" stroke="#6B6B6B"></rect><text x="1006" y="639" text-anchor="middle" font-family="&#39;Geist Mono&#39;,ui-monospace,monospace" font-size="12" fill="#0E0E0E">Workers AI · AI Gateway (gemma)</text></g>
  <path d="M1172 394 L1184 394 L1184 634 L1174 634" stroke="#2A2A2A" stroke-width="1.5" fill="none" marker-end="url(#ah)"></path>
  <text x="1108" y="520" font-family="&#39;Geist Mono&#39;,ui-monospace,monospace" font-size="10" fill="#6B6B6B" transform="rotate(90 1108 520)" opacity="0"> </text>

  
  <g stroke="#2A2A2A" stroke-width="1.5" fill="none">
    <path d="M770 470 L788 470"></path>
    <path d="M788 322 L788 470"></path>
    <path d="M788 322 L836 322" marker-end="url(#ah)"></path>
    <path d="M788 394 L836 394" marker-end="url(#ah)"></path>
    <path d="M788 466 L836 466" marker-end="url(#ah)"></path>
  </g>

  
  <g>
    <polygon points="545,648 665,700 545,752 425,700" fill="#FFFFFF" stroke="#0E0E0E" stroke-width="1.4"></polygon>
    <text x="545" y="694" text-anchor="middle" font-family="&#39;Geist&#39;,&#39;Inter&#39;,system-ui,sans-serif" font-size="12" font-weight="600" fill="#0E0E0E">dispatch</text>
    <text x="545" y="712" text-anchor="middle" font-family="&#39;Geist Mono&#39;,ui-monospace,monospace" font-size="10" fill="#6B6B6B">iTIP REPLY w/ owned UID?</text>
  </g>
  <path d="M620 616 L545 644" stroke="#2A2A2A" stroke-width="1.5" fill="none" marker-end="url(#ah)"></path>
  
  <path d="M665 700 L800 700 L800 562 L836 562" stroke="#2A2A2A" stroke-width="1.5" fill="none" marker-end="url(#ah)"></path>
  <text x="672" y="694" font-family="&#39;Geist Mono&#39;,ui-monospace,monospace" font-size="10" fill="#0E0E0E">YES</text>
  
  <path d="M545 752 L545 832 L1214 832 L1214 335 L1176 335" stroke="#2A2A2A" stroke-width="1.5" fill="none" marker-end="url(#ah)"></path>
  <text x="560" y="826" font-family="&#39;Geist Mono&#39;,ui-monospace,monospace" font-size="10" fill="#6B6B6B">NO → mailbox path</text>

  
  <rect x="90" y="700" width="300" height="118" rx="12" fill="#FFFFFF" stroke="#0E0E0E"></rect>
  <text x="108" y="728" font-family="&#39;Geist&#39;,&#39;Inter&#39;,system-ui,sans-serif" font-size="14" font-weight="600" fill="#0E0E0E">BlockTimeWorkflow</text>
  <text x="108" y="746" font-family="&#39;Geist Mono&#39;,ui-monospace,monospace" font-size="10" fill="#6B6B6B">id = block UID</text>
  <g font-family="&#39;Geist Mono&#39;,ui-monospace,monospace" font-size="11" fill="#0E0E0E">
    <text x="108" y="772">send iMIP ×3 → wait</text>
    <text x="108" y="792">→ nag → finalize</text>
  </g>
  <text x="108" y="600" font-family="&#39;Geist Mono&#39;,ui-monospace,monospace" font-size="10" fill="#A8A8A8" opacity="0"> </text>
  
  <path d="M240 700 L240 624 L420 624 L420 690" stroke="#2A2A2A" stroke-width="1.5" fill="none" marker-end="url(#ah)"></path>
  <text x="248" y="640" font-family="&#39;Geist Mono&#39;,ui-monospace,monospace" font-size="10" fill="#6B6B6B">block_time</text>
  <path d="M390 760 L728 760 L728 612" stroke="#6B6B6B" stroke-width="1.5" stroke-dasharray="5 4" fill="none" marker-end="url(#ahd)"></path>
  <text x="540" y="754" text-anchor="middle" font-family="&#39;Geist Mono&#39;,ui-monospace,monospace" font-size="10" fill="#6B6B6B">iMIP over the wire ↻</text>

  
  <g>
    <rect x="940" y="700" width="252" height="118" rx="10" fill="#FAFAF8" stroke="#ECECEC"></rect>
    <text x="958" y="726" font-family="&#39;Geist Mono&#39;,ui-monospace,monospace" font-size="10" letter-spacing="1.4" fill="#A8A8A8">LEGEND</text>
    <line x1="958" y1="748" x2="1002" y2="748" stroke="#2A2A2A" stroke-width="1.5"></line>
    <text x="1014" y="752" font-family="&#39;Geist&#39;,&#39;Inter&#39;,system-ui,sans-serif" font-size="12" fill="#0E0E0E">in-process call / data flow</text>
    <line x1="958" y1="774" x2="1002" y2="774" stroke="#6B6B6B" stroke-width="1.5" stroke-dasharray="5 4"></line>
    <text x="1014" y="778" font-family="&#39;Geist&#39;,&#39;Inter&#39;,system-ui,sans-serif" font-size="12" fill="#0E0E0E">email / async over the wire</text>
    <rect x="958" y="792" width="14" height="14" rx="2" fill="#0E0E0E"></rect>
    <text x="982" y="803" font-family="&#39;Geist&#39;,&#39;Inter&#39;,system-ui,sans-serif" font-size="12" fill="#0E0E0E">blocked / busy slot</text>
  </g>
</svg>