<svg xmlns="http://www.w3.org/2000/svg" width="1200" height="720" viewBox="0 0 1200 720" fill="none">
  <defs><pattern id="bp" width="22" height="22" patternUnits="userSpaceOnUse"><circle cx="1" cy="1" r="1" fill="#0E0E0E" opacity="0.06"></circle></pattern>
  <clipPath id="clip"><rect x="1" y="1" width="1198" height="718" rx="16"></rect></clipPath></defs>
  <rect x="0.5" y="0.5" width="1199" height="719" rx="16" fill="#FAFAF8" stroke="#ECECEC"></rect>
  <g clip-path="url(#clip)"><rect width="1200" height="720" fill="url(#bp)"></rect></g>
  <text x="48" y="58" font-family="&#39;Geist Mono&#39;,ui-monospace,monospace" font-size="11" letter-spacing="1.8" fill="#A8A8A8">FIG.06 — AGENT TOOLING SURFACE</text>
  <text x="48" y="90" font-family="&#39;Geist&#39;,&#39;Inter&#39;,system-ui,sans-serif" font-size="22" font-weight="600" fill="#0E0E0E">Capability map</text>
  <line x1="596" y1="120" x2="596" y2="632" stroke="#ECECEC" stroke-dasharray="2 4"></line>
  <text x="64" y="132" font-family="&#39;Geist&#39;,&#39;Inter&#39;,system-ui,sans-serif" font-size="15" font-weight="600" fill="#0E0E0E">MCP server</text><text x="64" y="150" font-family="&#39;Geist Mono&#39;,ui-monospace,monospace" font-size="11" fill="#6B6B6B">/mcp · Access-gated · 20 tools</text><rect x="64" y="170" width="520" height="268" rx="12" fill="#FAFAF8" stroke="#ECECEC"></rect><text x="82" y="194" font-family="&#39;Geist Mono&#39;,ui-monospace,monospace" font-size="10" letter-spacing="1.6" fill="#6B6B6B">EMAIL · 13</text><g><rect x="82" y="206" width="232" height="26" rx="13" fill="#FFFFFF" stroke="#0E0E0E"></rect><text x="198" y="223" text-anchor="middle" font-family="&#39;Geist Mono&#39;,ui-monospace,monospace" font-size="11" fill="#0E0E0E">list_mailboxes</text></g><g><rect x="334" y="206" width="232" height="26" rx="13" fill="#FFFFFF" stroke="#0E0E0E"></rect><text x="450" y="223" text-anchor="middle" font-family="&#39;Geist Mono&#39;,ui-monospace,monospace" font-size="11" fill="#0E0E0E">list_emails</text></g><g><rect x="82" y="238" width="232" height="26" rx="13" fill="#FFFFFF" stroke="#0E0E0E"></rect><text x="198" y="255" text-anchor="middle" font-family="&#39;Geist Mono&#39;,ui-monospace,monospace" font-size="11" fill="#0E0E0E">get_email</text></g><g><rect x="334" y="238" width="232" height="26" rx="13" fill="#FFFFFF" stroke="#0E0E0E"></rect><text x="450" y="255" text-anchor="middle" font-family="&#39;Geist Mono&#39;,ui-monospace,monospace" font-size="11" fill="#0E0E0E">get_thread</text></g><g><rect x="82" y="270" width="232" height="26" rx="13" fill="#FFFFFF" stroke="#0E0E0E"></rect><text x="198" y="287" text-anchor="middle" font-family="&#39;Geist Mono&#39;,ui-monospace,monospace" font-size="11" fill="#0E0E0E">search_emails</text></g><g><rect x="334" y="270" width="232" height="26" rx="13" fill="#FFFFFF" stroke="#0E0E0E"></rect><text x="450" y="287" text-anchor="middle" font-family="&#39;Geist Mono&#39;,ui-monospace,monospace" font-size="11" fill="#0E0E0E">draft_reply</text></g><g><rect x="82" y="302" width="232" height="26" rx="13" fill="#FFFFFF" stroke="#0E0E0E"></rect><text x="198" y="319" text-anchor="middle" font-family="&#39;Geist Mono&#39;,ui-monospace,monospace" font-size="11" fill="#0E0E0E">create_draft</text></g><g><rect x="334" y="302" width="232" height="26" rx="13" fill="#FFFFFF" stroke="#0E0E0E"></rect><text x="450" y="319" text-anchor="middle" font-family="&#39;Geist Mono&#39;,ui-monospace,monospace" font-size="11" fill="#0E0E0E">update_draft</text></g><g><rect x="82" y="334" width="232" height="26" rx="13" fill="#FFFFFF" stroke="#0E0E0E"></rect><text x="198" y="351" text-anchor="middle" font-family="&#39;Geist Mono&#39;,ui-monospace,monospace" font-size="11" fill="#0E0E0E">delete_email</text></g><g><rect x="334" y="334" width="232" height="26" rx="13" fill="#FFFFFF" stroke="#0E0E0E"></rect><text x="450" y="351" text-anchor="middle" font-family="&#39;Geist Mono&#39;,ui-monospace,monospace" font-size="11" fill="#0E0E0E">send_reply</text></g><g><rect x="82" y="366" width="232" height="26" rx="13" fill="#FFFFFF" stroke="#0E0E0E"></rect><text x="198" y="383" text-anchor="middle" font-family="&#39;Geist Mono&#39;,ui-monospace,monospace" font-size="11" fill="#0E0E0E">send_email</text></g><g><rect x="334" y="366" width="232" height="26" rx="13" fill="#FFFFFF" stroke="#0E0E0E"></rect><text x="450" y="383" text-anchor="middle" font-family="&#39;Geist Mono&#39;,ui-monospace,monospace" font-size="11" fill="#0E0E0E">mark_email_read</text></g><g><rect x="82" y="398" width="232" height="26" rx="13" fill="#FFFFFF" stroke="#0E0E0E"></rect><text x="198" y="415" text-anchor="middle" font-family="&#39;Geist Mono&#39;,ui-monospace,monospace" font-size="11" fill="#0E0E0E">move_email</text></g><rect x="64" y="460" width="520" height="172" rx="12" fill="#FAFAF8" stroke="#ECECEC"></rect><text x="82" y="484" font-family="&#39;Geist Mono&#39;,ui-monospace,monospace" font-size="10" letter-spacing="1.6" fill="#6B6B6B">CALENDAR · 7</text><g><rect x="82" y="496" width="232" height="26" rx="13" fill="#FFFFFF" stroke="#0E0E0E"></rect><text x="198" y="513" text-anchor="middle" font-family="&#39;Geist Mono&#39;,ui-monospace,monospace" font-size="11" fill="#0E0E0E">get_availability</text></g><g><rect x="334" y="496" width="232" height="26" rx="13" fill="#FFFFFF" stroke="#0E0E0E"></rect><text x="450" y="513" text-anchor="middle" font-family="&#39;Geist Mono&#39;,ui-monospace,monospace" font-size="11" fill="#0E0E0E">find_free_slots</text></g><g><rect x="82" y="528" width="232" height="26" rx="13" fill="#FFFFFF" stroke="#0E0E0E"></rect><text x="198" y="545" text-anchor="middle" font-family="&#39;Geist Mono&#39;,ui-monospace,monospace" font-size="11" fill="#0E0E0E">block_time</text></g><g><rect x="334" y="528" width="232" height="26" rx="13" fill="#FFFFFF" stroke="#0E0E0E"></rect><text x="450" y="545" text-anchor="middle" font-family="&#39;Geist Mono&#39;,ui-monospace,monospace" font-size="11" fill="#0E0E0E">get_block_status</text></g><g><rect x="82" y="560" width="232" height="26" rx="13" fill="#FFFFFF" stroke="#0E0E0E"></rect><text x="198" y="577" text-anchor="middle" font-family="&#39;Geist Mono&#39;,ui-monospace,monospace" font-size="11" fill="#0E0E0E">cancel_block</text></g><g><rect x="334" y="560" width="232" height="26" rx="13" fill="#FFFFFF" stroke="#0E0E0E"></rect><text x="450" y="577" text-anchor="middle" font-family="&#39;Geist Mono&#39;,ui-monospace,monospace" font-size="11" fill="#0E0E0E">list_blocks</text></g><g><rect x="82" y="592" width="232" height="26" rx="13" fill="#FFFFFF" stroke="#0E0E0E"></rect><text x="198" y="609" text-anchor="middle" font-family="&#39;Geist Mono&#39;,ui-monospace,monospace" font-size="11" fill="#0E0E0E">list_calendars</text></g><text x="632" y="132" font-family="&#39;Geist&#39;,&#39;Inter&#39;,system-ui,sans-serif" font-size="15" font-weight="600" fill="#0E0E0E">Built-in agent</text><text x="632" y="150" font-family="&#39;Geist Mono&#39;,ui-monospace,monospace" font-size="11" fill="#6B6B6B">chat panel · 16 tools</text><rect x="632" y="170" width="520" height="204" rx="12" fill="#FAFAF8" stroke="#ECECEC"></rect><text x="650" y="194" font-family="&#39;Geist Mono&#39;,ui-monospace,monospace" font-size="10" letter-spacing="1.6" fill="#6B6B6B">EMAIL · 9</text><g><rect x="650" y="206" width="232" height="26" rx="13" fill="#FFFFFF" stroke="#0E0E0E"></rect><text x="766" y="223" text-anchor="middle" font-family="&#39;Geist Mono&#39;,ui-monospace,monospace" font-size="11" fill="#0E0E0E">list_emails</text></g><g><rect x="902" y="206" width="232" height="26" rx="13" fill="#FFFFFF" stroke="#0E0E0E"></rect><text x="1018" y="223" text-anchor="middle" font-family="&#39;Geist Mono&#39;,ui-monospace,monospace" font-size="11" fill="#0E0E0E">get_email</text></g><g><rect x="650" y="238" width="232" height="26" rx="13" fill="#FFFFFF" stroke="#0E0E0E"></rect><text x="766" y="255" text-anchor="middle" font-family="&#39;Geist Mono&#39;,ui-monospace,monospace" font-size="11" fill="#0E0E0E">get_thread</text></g><g><rect x="902" y="238" width="232" height="26" rx="13" fill="#FFFFFF" stroke="#0E0E0E"></rect><text x="1018" y="255" text-anchor="middle" font-family="&#39;Geist Mono&#39;,ui-monospace,monospace" font-size="11" fill="#0E0E0E">search_emails</text></g><g><rect x="650" y="270" width="232" height="26" rx="13" fill="#FFFFFF" stroke="#0E0E0E"></rect><text x="766" y="287" text-anchor="middle" font-family="&#39;Geist Mono&#39;,ui-monospace,monospace" font-size="11" fill="#0E0E0E">draft_email</text></g><g><rect x="902" y="270" width="232" height="26" rx="13" fill="#FFFFFF" stroke="#0E0E0E"></rect><text x="1018" y="287" text-anchor="middle" font-family="&#39;Geist Mono&#39;,ui-monospace,monospace" font-size="11" fill="#0E0E0E">draft_reply</text></g><g><rect x="650" y="302" width="232" height="26" rx="13" fill="#FFFFFF" stroke="#0E0E0E"></rect><text x="766" y="319" text-anchor="middle" font-family="&#39;Geist Mono&#39;,ui-monospace,monospace" font-size="11" fill="#0E0E0E">mark_email_read</text></g><g><rect x="902" y="302" width="232" height="26" rx="13" fill="#FFFFFF" stroke="#0E0E0E"></rect><text x="1018" y="319" text-anchor="middle" font-family="&#39;Geist Mono&#39;,ui-monospace,monospace" font-size="11" fill="#0E0E0E">move_email</text></g><g><rect x="650" y="334" width="232" height="26" rx="13" fill="#FFFFFF" stroke="#0E0E0E"></rect><text x="766" y="351" text-anchor="middle" font-family="&#39;Geist Mono&#39;,ui-monospace,monospace" font-size="11" fill="#0E0E0E">discard_draft</text></g><rect x="632" y="396" width="520" height="172" rx="12" fill="#FAFAF8" stroke="#ECECEC"></rect><text x="650" y="420" font-family="&#39;Geist Mono&#39;,ui-monospace,monospace" font-size="10" letter-spacing="1.6" fill="#6B6B6B">CALENDAR · 7</text><g><rect x="650" y="432" width="232" height="26" rx="13" fill="#FFFFFF" stroke="#0E0E0E"></rect><text x="766" y="449" text-anchor="middle" font-family="&#39;Geist Mono&#39;,ui-monospace,monospace" font-size="11" fill="#0E0E0E">get_availability</text></g><g><rect x="902" y="432" width="232" height="26" rx="13" fill="#FFFFFF" stroke="#0E0E0E"></rect><text x="1018" y="449" text-anchor="middle" font-family="&#39;Geist Mono&#39;,ui-monospace,monospace" font-size="11" fill="#0E0E0E">find_free_slots</text></g><g><rect x="650" y="464" width="232" height="26" rx="13" fill="#FFFFFF" stroke="#0E0E0E"></rect><text x="766" y="481" text-anchor="middle" font-family="&#39;Geist Mono&#39;,ui-monospace,monospace" font-size="11" fill="#0E0E0E">block_time</text></g><g><rect x="902" y="464" width="232" height="26" rx="13" fill="#FFFFFF" stroke="#0E0E0E"></rect><text x="1018" y="481" text-anchor="middle" font-family="&#39;Geist Mono&#39;,ui-monospace,monospace" font-size="11" fill="#0E0E0E">get_block_status</text></g><g><rect x="650" y="496" width="232" height="26" rx="13" fill="#FFFFFF" stroke="#0E0E0E"></rect><text x="766" y="513" text-anchor="middle" font-family="&#39;Geist Mono&#39;,ui-monospace,monospace" font-size="11" fill="#0E0E0E">cancel_block</text></g><g><rect x="902" y="496" width="232" height="26" rx="13" fill="#FFFFFF" stroke="#0E0E0E"></rect><text x="1018" y="513" text-anchor="middle" font-family="&#39;Geist Mono&#39;,ui-monospace,monospace" font-size="11" fill="#0E0E0E">list_blocks</text></g><g><rect x="650" y="528" width="232" height="26" rx="13" fill="#FFFFFF" stroke="#0E0E0E"></rect><text x="766" y="545" text-anchor="middle" font-family="&#39;Geist Mono&#39;,ui-monospace,monospace" font-size="11" fill="#0E0E0E">list_calendars</text></g><text x="600" y="672" text-anchor="middle" font-family="&#39;Geist&#39;,&#39;Inter&#39;,system-ui,sans-serif" font-size="12" fill="#6B6B6B">Overlapping but not identical surfaces.</text>
</svg>